<svg width="125" height="100" fill="none" xmlns="http://www.w3.org/2000/svg"><path fill="#FFE17F" d="M0 0h125v100H0z"/><path d="m85.7 50.4-6.5-8.2c-.3-.4-.7-.6-1.2-.6h-8.3v-5.1c0-.8-.7-1.5-1.5-1.5H40.5c-.8 0-1.5.7-1.5 1.5s.7 1.5 1.5 1.5h26.2V59.7H54.8c-.6-1.9-2.4-3.3-4.5-3.3-2.6 0-4.8 2.2-4.8 4.8 0 2.6 2.2 4.8 4.8 4.8 2.1 0 3.9-1.4 4.5-3.3h13.4c.8 0 1.5-.7 1.5-1.5V44.6h7.6l5.7 7.3v7.9h-2.2c-.6-1.9-2.4-3.3-4.5-3.3-2.6 0-4.8 2.2-4.8 4.8 0 2.6 2.1 4.8 4.8 4.8 2.1 0 3.9-1.4 4.5-3.3h3.7c.8 0 1.5-.7 1.5-1.5v-9.9c0-.4-.1-.7-.3-1ZM50.3 63c-1 0-1.8-.8-1.8-1.8s.8-1.8 1.8-1.8 1.8.8 1.8 1.8-.9 1.8-1.8 1.8Zm26.1 0c-1 0-1.8-.8-1.8-1.8s.8-1.8 1.8-1.8 1.8.8 1.8 1.8-.9 1.8-1.8 1.8Z" fill="#000"/><path d="M58.4 44.6c.8 0 1.5-.7 1.5-1.5s-.7-1.5-1.5-1.5H43.8c-.8 0-1.5.7-1.5 1.5s.7 1.5 1.5 1.5h14.6ZM56.7 49.7c0-.8-.7-1.5-1.5-1.5H40.5c-.8 0-1.5.7-1.5 1.5s.7 1.5 1.5 1.5h14.7c.8 0 1.5-.7 1.5-1.5Z" fill="#000"/></svg>